<?xml version="1.0" encoding="utf-8" ?>
<svg baseProfile="tiny" height="1024" version="1.2" width="1440" xmlns="http://www.w3.org/2000/svg" xmlns:ev="http://www.w3.org/2001/xml-events" xmlns:xlink="http://www.w3.org/1999/xlink"><defs /><rect fill="#F9F7F0" height="1024" width="1440" x="0" y="0" /><line opacity="0.6" stroke="#E5E5E5" stroke-width="1" x1="80" x2="80" y1="0" y2="1024" /><line opacity="0.6" stroke="#E5E5E5" stroke-width="1" x1="188.3333" x2="188.3333" y1="0" y2="1024" /><line opacity="0.6" stroke="#E5E5E5" stroke-width="1" x1="296.6667" x2="296.6667" y1="0" y2="1024" /><line opacity="0.6" stroke="#E5E5E5" stroke-width="1" x1="405.0" x2="405.0" y1="0" y2="1024" /><line opacity="0.6" stroke="#E5E5E5" stroke-width="1" x1="513.3333" x2="513.3333" y1="0" y2="1024" /><line opacity="0.6" stroke="#E5E5E5" stroke-width="1" x1="621.6667" x2="621.6667" y1="0" y2="1024" /><line opacity="0.6" stroke="#E5E5E5" stroke-width="1" x1="730.0" x2="730.0" y1="0" y2="1024" /><line opacity="0.6" stroke="#E5E5E5" stroke-width="1" x1="838.3333" x2="838.3333" y1="0" y2="1024" /><line opacity="0.6" stroke="#E5E5E5" stroke-width="1" x1="946.6667" x2="946.6667" y1="0" y2="1024" /><line opacity="0.6" stroke="#E5E5E5" stroke-width="1" x1="1055.0" x2="1055.0" y1="0" y2="1024" /><line opacity="0.6" stroke="#E5E5E5" stroke-width="1" x1="1163.3333" x2="1163.3333" y1="0" y2="1024" /><line opacity="0.6" stroke="#E5E5E5" stroke-width="1" x1="1271.6667" x2="1271.6667" y1="0" y2="1024" /><line opacity="0.6" stroke="#E5E5E5" stroke-width="1" x1="1360.0" x2="1360.0" y1="0" y2="1024" /><line opacity="0.4" stroke="#E5E5E5" stroke-width="1" x1="0" x2="1440" y1="0" y2="0" /><line opacity="0.4" stroke="#E5E5E5" stroke-width="1" x1="0" x2="1440" y1="100" y2="100" /><line opacity="0.4" stroke="#E5E5E5" stroke-width="1" x1="0" x2="1440" y1="200" y2="200" /><line opacity="0.4" stroke="#E5E5E5" stroke-width="1" x1="0" x2="1440" y1="300" y2="300" /><line opacity="0.4" stroke="#E5E5E5" stroke-width="1" x1="0" x2="1440" y1="400" y2="400" /><line opacity="0.4" stroke="#E5E5E5" stroke-width="1" x1="0" x2="1440" y1="500" y2="500" /><line opacity="0.4" stroke="#E5E5E5" stroke-width="1" x1="0" x2="1440" y1="600" y2="600" /><line opacity="0.4" stroke="#E5E5E5" stroke-width="1" x1="0" x2="1440" y1="700" y2="700" /><line opacity="0.4" stroke="#E5E5E5" stroke-width="1" x1="0" x2="1440" y1="800" y2="800" /><line opacity="0.4" stroke="#E5E5E5" stroke-width="1" x1="0" x2="1440" y1="900" y2="900" /><line opacity="0.4" stroke="#E5E5E5" stroke-width="1" x1="0" x2="1440" y1="1000" y2="1000" /></svg>